<svg data-name="Group 4434" xmlns="http://www.w3.org/2000/svg" width="22" height="22" viewBox="0 0 22 22">
    <defs>
        <clipPath id="ptmlevx3ga">
            <path data-name="Rectangle 7384" style="fill:none" d="M0 0h22v22H0z"/>
        </clipPath>
    </defs>
    <g data-name="Group 4434" style="clip-path:url(#ptmlevx3ga)">
        <path data-name="Path 10836" d="M1.64 19.775V2.226a.611.611 0 0 1 .585-.585h17.549a.611.611 0 0 1 .585.585v17.549a.611.611 0 0 1-.585.585H2.225a.611.611 0 0 1-.585-.585" style="fill:#253858"/>
        <path data-name="Path 10837" d="M19.709 11.02v8.487c0 .168-.039.206-.206.206q-8.506-.007-17.014 0c-.168 0-.206-.039-.206-.206q.008-8.508 0-17.015c0-.168.039-.206.206-.205q8.508.006 17.014 0c.168 0 .207.04.206.207q-.009 4.263 0 8.527" style="fill:#d5e8ff"/>
        <path data-name="Path 10838" d="M13.926 11.731h-2.9a.707.707 0 0 1-.677-.413.688.688 0 0 1 .064-.741.737.737 0 0 1 .647-.308h5.771a.708.708 0 0 1 .677.413.688.688 0 0 1-.064.742.739.739 0 0 1-.647.308H13.93" style="fill:#253858"/>
        <path data-name="Path 10839" d="M13.913 6.824h-2.831a.739.739 0 0 1-.79-.566.722.722 0 0 1 .632-.889c.055 0 .11-.006.164-.006h5.68A.729.729 0 0 1 17 6.8a1.562 1.562 0 0 1-.29.023h-2.794" style="fill:#253858"/>
        <path data-name="Path 10840" d="M13.927 16.639H11.06a.728.728 0 0 1-.239-1.432 1.235 1.235 0 0 1 .271-.028h5.662a.748.748 0 0 1 .791.517.716.716 0 0 1-.7.941c-.834.011-1.668 0-2.5 0h-.42" style="fill:#253858"/>
        <path data-name="Path 10841" d="M6.139 7.858a.721.721 0 0 1-.524-.221c-.325-.321-.651-.641-.968-.97A.729.729 0 1 1 5.672 5.63a4.932 4.932 0 0 1 .362.361c.079.09.127.09.213 0q.7-.717 1.421-1.422a.73.73 0 1 1 1.075.987c-.191.2-.394.4-.593.6-.478.479-.957.956-1.433 1.436a.789.789 0 0 1-.578.268" style="fill:#0065ff"/>
        <path data-name="Path 10842" d="M5.153 15.235a.715.715 0 0 1 .523.219c.126.123.255.245.373.375.072.08.113.07.185 0q.711-.721 1.432-1.434a.73.73 0 0 1 1.127.927 1.7 1.7 0 0 1-.135.147q-.961.963-1.923 1.924a.749.749 0 0 1-1.191 0c-.314-.314-.633-.623-.936-.948a.672.672 0 0 1-.12-.779.71.71 0 0 1 .665-.426" style="fill:#0065ff"/>
        <path data-name="Path 10843" d="M6.041 12.768a.7.7 0 0 1-.424-.219c-.329-.327-.66-.65-.981-.984a.728.728 0 0 1 1.023-1.036c.125.115.249.234.362.361.086.1.137.108.237.005.468-.48.943-.952 1.42-1.423a.735.735 0 0 1 .978-.1.722.722 0 0 1 .076 1.1c-.369.381-.748.751-1.122 1.126-.306.306-.611.614-.918.918a.8.8 0 0 1-.651.245" style="fill:#0065ff"/>
    </g>
</svg>
