<svg xmlns="http://www.w3.org/2000/svg" width="28" height="28" viewBox="0 0 28 28">
    <defs>
        <linearGradient id="18vdgbs85a" x1=".5" x2=".5" y2="1" gradientUnits="objectBoundingBox">
            <stop offset="0" stop-color="#c9dffe"/>
            <stop offset=".581" stop-color="#7db6ff"/>
            <stop offset="1" stop-color="#72b0ff"/>
        </linearGradient>
    </defs>
    <g data-name="Group 4553" transform="translate(-1138 -799)">
        <circle data-name="Ellipse 6" cx="14" cy="14" r="14" transform="translate(1138 799)" style="fill:#e7f0ff"/>
        <g data-name="Group 1918">
            <path data-name="Path 1619" d="M582.571 319.815a5.8 5.8 0 0 1 3.968-5.215.774.774 0 0 1 .937.181 3.691 3.691 0 0 0 1.55.9.369.369 0 0 1 .23.2 1.4 1.4 0 0 0 1.292.8c.579.006 1.158 0 1.737 0a3.82 3.82 0 0 0 3.111-1.483c.086-.106.133-.092.226-.032a5.762 5.762 0 0 1 2.67 3.973 3.67 3.67 0 0 0 .1.6v.1a5.545 5.545 0 0 0-.018.694c0 .485-.244.743-.781.835h-14.252a.83.83 0 0 1-.679-.4.766.766 0 0 1-.1-.444c.004-.224-.018-.467.009-.709z" transform="translate(561.681 500.077)" style="fill:url(#18vdgbs85a)"/>
            <path data-name="Path 1620" d="M582.123 467.571h-.016l-.013-.009v-.762a.059.059 0 0 1 .03 0z" transform="translate(562.128 353.096)" style="fill:url(#18vdgbs85a)"/>
            <path data-name="Path 1621" d="M666.689 5.558a1.038 1.038 0 0 0-.373-.839.187.187 0 0 1-.076-.146 3.8 3.8 0 0 0-.246-1.138A4.857 4.857 0 0 0 662.269.22c-.192-.041-.388-.069-.582-.1h-.73c-.007.027-.028.032-.052.033a4.006 4.006 0 0 0-1.271.282 4.88 4.88 0 0 0-3.17 3.882c-.025.137.036.3-.112.417a.972.972 0 0 0-.361.79c-.008.845-.011 1.691 0 2.537a1.025 1.025 0 0 0 1.333.99 1.086 1.086 0 0 0 .6-.478l.084.192a4 4 0 0 0 2.076 2.188.131.131 0 0 0 .193-.047 1.378 1.378 0 0 1 1.144-.572c.486 0 .976-.034 1.459.007a1.354 1.354 0 0 0 1.42-.821c.01-.02.023-.04.035-.059a6.3 6.3 0 0 0 .422-.884 1.522 1.522 0 0 0 .261.292.1.1 0 0 1 .039.09 3.124 3.124 0 0 1-.056.792 1.83 1.83 0 0 1-1.825 1.417h-1.755a.607.607 0 0 0-.045 1.212 19.738 19.738 0 0 0 2.2-.027 2.937 2.937 0 0 0 2.323-1.566 3.224 3.224 0 0 0 .373-1.749.228.228 0 0 1 .073-.215 1.018 1.018 0 0 0 .342-.816q.007-1.224.002-2.449zm-1.956-.525a3.669 3.669 0 0 0-3.2-2.536c-1.819-.1-2.882.994-3.593 2.535a2.353 2.353 0 0 0-.254-.31c-.058-.05-.035-.121-.026-.18a3.717 3.717 0 0 1 7.323-.211c.064.309.064.309-.25.701z" transform="translate(490.806 803.549)" style="fill:url(#18vdgbs85a)"/>
        </g>
    </g>
</svg>
