<svg data-name="Group 19111" xmlns="http://www.w3.org/2000/svg" width="18" height="18" viewBox="0 0 18 18">
    <defs>
        <clipPath id="k5iu0b46ma">
            <path data-name="Rectangle 5021" style="fill:none" d="M0 0h18v18H0z"/>
        </clipPath>
    </defs>
    <g data-name="Group 4252" style="clip-path:url(#k5iu0b46ma)">
        <path data-name="Path 10425" d="M4 2.476v13.918a.8.8 0 0 0 .7.909h10.8a1.514 1.514 0 0 0 .319-.088.825.825 0 0 0 .413-.823V2.472a.836.836 0 0 0-.646-.886H4.642a.836.836 0 0 0-.642.89" transform="translate(-1.12 -.444)" style="fill:#052e5e"/>
        <path data-name="Path 10426" d="M4.829 9.673V2.822c0-.336.085-.42.425-.42h2.079c.082 0 .14 0 .175.106a1.387 1.387 0 0 0 1.365 1.05c1.016.018 2.033.012 3.049-.006a1.382 1.382 0 0 0 1.256-.985c.04-.138.1-.169.234-.168.687.007 1.374 0 2.061 0 .312 0 .4.093.4.408v13.736c0 .315-.089.4-.405.4H5.229c-.313 0-.4-.089-.4-.408V9.673" transform="translate(-1.352 -.672)" style="fill:#fefefe"/>
        <path data-name="Path 10427" d="M11.626 2.4h2.111c.15 0 .169.037.093.156a.807.807 0 0 1-.68.42q-1.523.013-3.047 0a.8.8 0 0 1-.688-.435c-.063-.1-.054-.142.083-.141.709.006 1.418 0 2.128 0" transform="translate(-2.626 -.672)" style="fill:#fefefe"/>
        <path data-name="Path 10428" d="m7.632 8.2.555-1.661.343-1.031c.066-.2.17-.281.323-.266s.246.112.271.32c.064.529.121 1.06.181 1.59 0 .022.007.042.017.092.131-.218.251-.414.367-.613.076-.129.166-.241.33-.224s.239.147.282.3c.091.333.189.665.294 1.032.077-.225.145-.421.211-.618.115-.343.232-.687.342-1.032a.322.322 0 0 1 .276-.264.312.312 0 0 1 .313.217c.132.269.274.534.4.806a.2.2 0 0 0 .217.136c1-.005 2 0 3-.006.135 0 .181.035.165.168s.055.31-.027.393-.258.024-.392.024h-2.965a.385.385 0 0 1-.412-.253c-.058-.14-.135-.273-.218-.436-.074.216-.143.409-.207.6-.138.408-.272.816-.409 1.224-.077.231-.171.326-.323.314-.193-.016-.256-.155-.3-.32-.114-.413-.235-.824-.365-1.276l-.414.686a2.155 2.155 0 0 1-.116.188.29.29 0 0 1-.536-.135c-.047-.406-.094-.811-.14-1.223-.067.05-.068.13-.09.2q-.324.956-.641 1.915a.326.326 0 0 1-.211.246.3.3 0 0 1-.374-.21c-.24-.556-.481-1.112-.713-1.671a.186.186 0 0 0-.21-.139c-.238.01-.477 0-.716.005-.08 0-.1-.022-.109-.1-.026-.48-.028-.48.444-.48.222 0 .444.005.665 0a.34.34 0 0 1 .353.236c.173.412.351.822.542 1.271" transform="translate(-1.573 -1.467)" style="fill:#052e5e"/>
        <path data-name="Path 10429" d="M10.575 13.892H5.804c-.142 0-.19-.035-.175-.176s-.04-.3.025-.378.254-.03.387-.03q4.643 0 9.286-.005c.151 0 .2.032.194.191-.012.395 0 .395-.4.395h-4.546" transform="translate(-1.574 -3.722)" style="fill:#cbe9fe"/>
        <path data-name="Path 10430" d="M10.57 15.51H5.803c-.14 0-.2-.029-.175-.174s-.058-.312.032-.39.248-.021.377-.022h9.3c.144 0 .191.025.186.181-.013.4 0 .4-.4.4z" transform="translate(-1.572 -4.176)" style="fill:#cbe9fe"/>
        <path data-name="Path 10431" d="M10.575 17.123H5.807c-.132 0-.2-.015-.179-.168.019-.133-.056-.318.029-.39s.258-.026.393-.026h9.28c.161 0 .192.046.189.2-.01.39 0 .39-.4.39h-4.544" transform="translate(-1.572 -4.628)" style="fill:#cbe9fe"/>
        <path data-name="Path 10432" d="M10.575 18.16h4.768c.132 0 .2.017.179.168-.019.133.056.318-.03.39s-.258.025-.393.025q-4.64 0-9.28.005c-.161 0-.192-.047-.188-.2.01-.39 0-.39.4-.39z" transform="translate(-1.577 -5.084)" style="fill:#cbe9fe"/>
        <path data-name="Path 10433" d="M10.575 19.772h4.767c.158 0 .2.046.179.189-.016.127.055.3-.028.373s-.248.024-.377.024h-9.3c-.16 0-.193-.045-.189-.194.01-.392 0-.392.4-.392z" transform="translate(-1.577 -5.535)" style="fill:#cbe9fe"/>
    </g>
</svg>
