<svg xmlns="http://www.w3.org/2000/svg" width="28" height="28" viewBox="0 0 28 28">
    <defs>
        <linearGradient id="mhet6mja1a" x1=".5" x2=".5" y2="1" gradientUnits="objectBoundingBox">
            <stop offset="0" stop-color="#fcccba"/>
            <stop offset="1" stop-color="#fae4d5"/>
        </linearGradient>
    </defs>
    <g data-name="Group 4554" transform="translate(-1138 -850)">
        <circle data-name="Ellipse 7" cx="14" cy="14" r="14" transform="translate(1138 850)" style="fill:#f4f4f4"/>
        <g data-name="Group 1919">
            <path data-name="Path 1622" d="M607.1-3.248a1.392 1.392 0 0 0 .076-.557 10.349 10.349 0 0 1 2.154-5.3 10.379 10.379 0 0 1 4.724-3.451.654.654 0 0 1 .909.365.65.65 0 0 1-.453.868 9.225 9.225 0 0 0-5.51 5.48 8.308 8.308 0 0 0-.553 3.852 9.117 9.117 0 0 0 6.031 8.045 8.454 8.454 0 0 0 3.809.559 9.2 9.2 0 0 0 8.343-6.921 8.949 8.949 0 0 0-1.824-8.2 9.07 9.07 0 0 0-5.2-3.169.252.252 0 0 0-.067-.005.329.329 0 0 0-.067.028c.131.126.26.237.374.361a.643.643 0 0 1-.02.932.641.641 0 0 1-.917-.013q-.852-.837-1.689-1.689a.624.624 0 0 1-.01-.93c.562-.575 1.136-1.137 1.7-1.708.1-.1.227-.119.328-.2h.268a.633.633 0 0 1 .547.483.68.68 0 0 1-.207.71c-.137.136-.275.272-.409.411-.039.041-.113.075-.088.141s.1.054.157.064a9.952 9.952 0 0 1 1.725.454 10.518 10.518 0 0 1 3.82 2.368 10.558 10.558 0 0 1 2.079 2.77 10.384 10.384 0 0 1 1.081 3.432c.039.3.013.605.053.906v1.116c-.048.307-.028.619-.066.927a10.184 10.184 0 0 1-.788 2.781 10.393 10.393 0 0 1-2.643 3.638 10.2 10.2 0 0 1-3.483 2.078 9.987 9.987 0 0 1-2.163.525c-.316.036-.635.012-.95.057H617.1c-.314-.048-.634-.026-.949-.069a10.493 10.493 0 0 1-3.2-1 10.463 10.463 0 0 1-3.116-2.35 10.262 10.262 0 0 1-2.158-3.559 10.157 10.157 0 0 1-.519-2.1c-.036-.278-.013-.561-.062-.838z" transform="translate(534.015 867.236)" style="fill:url(#mhet6mja1a)"/>
            <path data-name="Path 1623" d="M690.062 113.043a6.874 6.874 0 1 1 6.813 6.883 6.873 6.873 0 0 1-6.813-6.883z" transform="translate(454.755 751.558)" style="fill:url(#mhet6mja1a)"/>
        </g>
    </g>
</svg>
