<svg id="Group_14906" data-name="Group 14906" xmlns="http://www.w3.org/2000/svg" xmlns:xlink="http://www.w3.org/1999/xlink" width="13.102" height="12" viewBox="0 0 13.102 12">
  <defs>
    <clipPath id="clip-path">
      <rect id="Rectangle_7875" data-name="Rectangle 7875" width="13.102" height="12" fill="#253858"/>
    </clipPath>
  </defs>
  <g id="Group_14905" data-name="Group 14905" clip-path="url(#clip-path)">
    <path id="Path_10884" data-name="Path 10884" d="M.049,9.193a1.189,1.189,0,0,1,.11-.933L4.185,1.287A2.573,2.573,0,0,1,8.641,3.86L4.616,10.833a1.189,1.189,0,0,1-.753.562l-2.475.592a.515.515,0,0,1-.613-.354Zm1-.418a.16.16,0,0,0-.015.125l.586,1.972,2-.479a.159.159,0,0,0,.1-.075L7.75,3.346A1.544,1.544,0,1,0,5.076,1.8Z" transform="translate(0 -0.001)" fill="#253858" fill-rule="evenodd"/>
    <path id="Path_10885" data-name="Path 10885" d="M317.274,121.777a.515.515,0,0,1,.515-.515h2.744a.515.515,0,0,1,0,1.029h-2.744a.514.514,0,0,1-.515-.515" transform="translate(-307.945 -117.697)" fill="#253858" fill-rule="evenodd"/>
    <path id="Path_10886" data-name="Path 10886" d="M247.274,238.447a.515.515,0,0,1,.515-.515h4.8a.515.515,0,1,1,0,1.029h-4.8A.514.514,0,0,1,247.274,238.447Z" transform="translate(-240.004 -230.936)" fill="#253858" fill-rule="evenodd"/>
    <path id="Path_10887" data-name="Path 10887" d="M177.274,355.117a.514.514,0,0,1,.515-.515h6.86a.515.515,0,1,1,0,1.029h-6.86A.514.514,0,0,1,177.274,355.117Z" transform="translate(-172.062 -344.176)" fill="#253858" fill-rule="evenodd"/>
  </g>
</svg>
