<svg xmlns="http://www.w3.org/2000/svg" width="28" height="28" viewBox="0 0 28 28">
    <defs>
        <linearGradient id="ajk58gm8ba" x1=".5" x2=".5" y2="1" gradientUnits="objectBoundingBox">
            <stop offset="0" stop-color="#f7b900"/>
            <stop offset=".483" stop-color="#cdf7e3"/>
            <stop offset="1" stop-color="#63e0bb"/>
        </linearGradient>
    </defs>
    <g data-name="Group 4555" transform="translate(-1139.074 -901.074)">
        <circle data-name="Ellipse 8" cx="14" cy="14" r="14" transform="translate(1139.074 901.074)" style="fill:#faf9ea"/>
        <g data-name="Group 1920">
            <path data-name="Path 1624" d="M51.313 307.167a1.285 1.285 0 0 1-.776-.448 1.1 1.1 0 0 1-.245-.68v-5c0-.118.031-.142.144-.141q2.909.006 5.819 0c.131 0 .145.045.145.156v6.11z" transform="translate(1096.313 615.98)" style="fill:url(#ajk58gm8ba)"/>
            <path data-name="Path 1625" d="M265.377 307.177v-6.095c0-.147.044-.171.178-.171q2.886.006 5.772 0c.127 0 .16.027.16.158-.005 1.64 0 3.279 0 4.919a1.135 1.135 0 0 1-.986 1.164c-.013 0-.024.016-.036.024z" transform="translate(888.32 615.97)" style="fill:url(#ajk58gm8ba)"/>
            <path data-name="Path 1626" d="M25.369 14.679a1.129 1.129 0 0 0-1.126-1.044c-.877.02-1.755.005-2.655.006a6.061 6.061 0 0 0 1.081-.6 3.445 3.445 0 0 0 1.308-1.588 1.66 1.66 0 0 0-.039-1.339 1.881 1.881 0 0 0-1.538-1.06 5.5 5.5 0 0 0-1.558 0 3.859 3.859 0 0 0-2.142 1.111 5.406 5.406 0 0 0-1.08 1.5c-.049.1-.07.27-.172.267s-.119-.174-.169-.273a5.139 5.139 0 0 0-1.618-1.942 3.577 3.577 0 0 0-1.77-.68c-.345-.028-.691-.007-1.036-.012a2.262 2.262 0 0 0-.875.167 1.734 1.734 0 0 0-.953 2.491 3.67 3.67 0 0 0 1.215 1.358 6.482 6.482 0 0 0 1.07.6H10.7a1.135 1.135 0 0 0-1.192 1.181q-.005.828 0 1.656a1.052 1.052 0 0 0 .08.469 1.178 1.178 0 0 0 1.121.714q2.973.006 5.946 0c.345 0 .345 0 .345-.34v-2.755c0-.171.016-.19.185-.185s.328.014.494 0c.214-.016.223 0 .223.222v2.8c0 .228.024.254.244.254h6.085a1.125 1.125 0 0 0 .563-.149 1.062 1.062 0 0 0 .586-.917v-1.885c-.004-.006-.012-.018-.011-.027zm-9.478-1.4a8.349 8.349 0 0 1-1.814-.426 4.844 4.844 0 0 1-1.567-.885 1.975 1.975 0 0 1-.637-.906.663.663 0 0 1 .345-.842 1.946 1.946 0 0 1 .854-.22 3.268 3.268 0 0 1 3.107 1.76 6.022 6.022 0 0 1 .657 1.579 4.714 4.714 0 0 1-.945-.064zm2.3.07c-.1 0-.128-.007-.094-.121a5.482 5.482 0 0 1 1.133-2.151 3.041 3.041 0 0 1 1.961-1.045c.056-.006.111-.023.168-.026h.278a2.188 2.188 0 0 1 .917.152.709.709 0 0 1 .425 1.054 2.642 2.642 0 0 1-1.074 1.115 6.483 6.483 0 0 1-2.2.835 9.565 9.565 0 0 1-1.512.183z" transform="translate(1135.748 898.255)" style="fill:url(#ajk58gm8ba)"/>
        </g>
    </g>
</svg>
