<svg xmlns="http://www.w3.org/2000/svg" width="28" height="28" viewBox="0 0 28 28">
    <defs>
        <linearGradient id="3o4pfbi4ia" x1=".5" x2=".5" y2="1" gradientUnits="objectBoundingBox">
            <stop offset="0" stop-color="#c8b2fe"/>
            <stop offset="1" stop-color="#9a77f9"/>
        </linearGradient>
    </defs>
    <g data-name="Group 4552" transform="translate(-1138 -748)">
        <circle data-name="Ellipse 5" cx="14" cy="14" r="14" transform="translate(1138 748)" style="fill:#eee8ff"/>
        <g data-name="Group 1917">
            <path data-name="Path 1617" d="M566.1 128.556c.047-.219.088-.439.141-.656a3.577 3.577 0 0 1 .926-1.665c.25-.259.5-.512.762-.764a1.376 1.376 0 0 1 1.947-.025q.731.694 1.429 1.422a1.4 1.4 0 0 1-.025 2 1.5 1.5 0 0 0-.477.64 1.578 1.578 0 0 0 .109 1.061 4.6 4.6 0 0 0 2.776 2.62 1.184 1.184 0 0 0 1.385-.35 1.4 1.4 0 0 1 1.491-.467 1.171 1.171 0 0 1 .546.3c.5.494 1 .982 1.486 1.489a1.368 1.368 0 0 1-.014 1.906 11.4 11.4 0 0 1-1.08 1.044 3.6 3.6 0 0 1-1.993.776c-.028 0-.06 0-.069.035h-.743a6.015 6.015 0 0 1-1.211-.206 8.975 8.975 0 0 1-2.3-1.075 12.392 12.392 0 0 1-2.383-1.986 11.71 11.71 0 0 1-1.856-2.57 5.921 5.921 0 0 1-.848-2.793z" transform="translate(576.903 633.179)" style="fill:url(#3o4pfbi4ia)"/>
            <path data-name="Path 1618" d="M799.317-18.961a4.886 4.886 0 0 0-1.742-2.865 4.573 4.573 0 0 0-2.493-1.064 1.272 1.272 0 0 1-.365-.025h-.672c-.007.028-.028.033-.053.033a3.113 3.113 0 0 0-.762.117 4.961 4.961 0 0 0-3.4 6.715.5.5 0 0 1 .031.318l-.7 3.027a.21.21 0 0 0 .143 0l2.981-.686a.356.356 0 0 1 .222.029 4.7 4.7 0 0 0 3.042.242 4.877 4.877 0 0 0 3.69-3.7c.072-.271.074-.551.139-.822v-.672c-.03-.217-.015-.435-.061-.647zm-2.6.187c-.957.951-1.91 1.906-2.872 2.867l-1.763-1.762c-.052-.052-.063-.085 0-.141.211-.205.422-.412.624-.626.082-.087.117-.021.164.027l.978.98c.684-.683 1.366-1.356 2.037-2.042.133-.136.2-.126.322.007.16.181.335.348.511.513.068.067.074.104 0 .176z" transform="translate(361.722 775.915)" style="fill:url(#3o4pfbi4ia)"/>
        </g>
    </g>
</svg>
