<svg xmlns="http://www.w3.org/2000/svg" id="Group_1915" width="12" height="12" viewBox="0 0 13 13">
  <path id="Path_1594" d="M6.5 0A6.5 6.5 0 1 0 13 6.5 6.507 6.507 0 0 0 6.5 0zm0 11.818A5.318 5.318 0 1 1 11.818 6.5 5.324 5.324 0 0 1 6.5 11.818z" fill="#3e3024"></path>
  <path id="Path_1595" d="M145.79 70a.788.788 0 1 0 .788.788.789.789 0 0 0-.788-.788z" transform="translate(-139.29 -67.242)" fill="#3e3024"></path>
  <path id="Path_1596" d="M150.591 140a.591.591 0 0 0-.591.591v3.545a.591.591 0 0 0 1.182 0v-3.545a.591.591 0 0 0-.591-.591z" transform="translate(-144.091 -134.485)" fill="#3e3024"></path>
</svg>