<svg xmlns="http://www.w3.org/2000/svg" width="28" height="28" viewBox="0 0 28 28">
    <defs>
        <linearGradient id="yg7uqiqjya" x1=".5" x2=".5" y2="1" gradientUnits="objectBoundingBox">
            <stop offset="0" stop-color="#fedb9c"/>
            <stop offset=".527" stop-color="#ffb84b"/>
            <stop offset="1" stop-color="#ffb749"/>
        </linearGradient>
    </defs>
    <g data-name="Group 4551" transform="translate(-1135.711 -696.711)">
        <circle data-name="Ellipse 4" cx="14" cy="14" r="14" transform="translate(1135.711 696.711)" style="fill:#fef2e8"/>
        <path data-name="Path 1616" d="M687.657 8.832c-.035-.067-.123-.049-.192-.053H685.62c-.342 0-.342 0-.342-.347V.405a.436.436 0 0 0-.049-.3h-10.68a.435.435 0 0 0-.049.3V8.43c0 .348 0 .349-.34.349h-1.832c-.074 0-.171-.02-.21.051s.042.136.088.192c.237.287.479.569.721.852q1.385 1.616 2.763 3.237 1.275 1.491 2.545 2.987c.209.247.431.484.627.744a.271.271 0 0 1-.2.034h-3.227c-.2 0-.235.038-.239.234v.68a.25.25 0 0 0 .049.181h9.284a.273.273 0 0 0 .049-.2v-.593c0-.284-.022-.3-.31-.305h-3.158a.3.3 0 0 1-.2-.028 2.086 2.086 0 0 1 .2-.258c.937-1.088 1.864-2.185 2.8-3.277q1.264-1.478 2.524-2.96c.38-.448.77-.887 1.141-1.343.045-.049.119-.107.082-.175zm-10.813-4.085a1.283 1.283 0 1 1 2.556-.054 1.213 1.213 0 0 1-.868 1.281 1.259 1.259 0 0 1-1.688-1.227zm1.842 3.49c-.331-.007-.663 0-1 0-.023-.072.032-.108.062-.151l3.11-4.558c.039-.058.07-.112.157-.111h1.1l-1.505 2.204q-.852 1.247-1.7 2.5a.23.23 0 0 1-.224.116zm3.914-.327a1.344 1.344 0 0 1-1.453.3 1.2 1.2 0 0 1-.772-1.141v-.122a1.189 1.189 0 0 1 .982-1.309 1.235 1.235 0 0 1 1.567 1.208 1.409 1.409 0 0 1-.324 1.064z" transform="translate(469.992 701.468)" style="fill:url(#yg7uqiqjya)"/>
    </g>
</svg>
