<svg data-name="Group 4431" xmlns="http://www.w3.org/2000/svg" width="22" height="22" viewBox="0 0 22 22">
    <defs>
        <clipPath id="iu9g14p6ua">
            <path data-name="Rectangle 7383" style="fill:none" d="M0 0h22v22H0z"/>
        </clipPath>
    </defs>
    <g data-name="Group 4431" style="clip-path:url(#iu9g14p6ua)">
        <path data-name="Path 10830" d="M21.835 10.764h.041v.462h-.041a.379.379 0 0 1 0-.47" style="fill:#7bb5f4"/>
        <path data-name="Path 10831" d="M21.835 10.764v.47a2.314 2.314 0 0 1-.694 1.3c-.228.238-.476.458-.723.677a1.587 1.587 0 0 0-.514 1.62c.085.421.137.848.193 1.274a1.683 1.683 0 0 1-1.28 1.958 14.522 14.522 0 0 1-1.537.267 1.7 1.7 0 0 0-1.425 1.237 3.621 3.621 0 0 1-.578 1.093 1.757 1.757 0 0 1-2.058.661 3.991 3.991 0 0 1-.8-.356c-.166-.1-.33-.195-.495-.291a1.707 1.707 0 0 0-1.851 0 7.17 7.17 0 0 1-1.167.589 2.873 2.873 0 0 1-.62.162 1.425 1.425 0 0 1-1.4-.62 6.958 6.958 0 0 1-.481-.757 8.756 8.756 0 0 1-.459-.824 1.567 1.567 0 0 0-1.449-.941 9.241 9.241 0 0 1-1.123-.183 1.744 1.744 0 0 1-1.461-2.154c.074-.516.184-1.026.222-1.549a1.153 1.153 0 0 0-.327-.943c-.338-.346-.68-.688-1.013-1.039a2.18 2.18 0 0 1-.646-1.12 1.72 1.72 0 0 1 .369-1.384 5.776 5.776 0 0 1 .924-.963 1.815 1.815 0 0 0 .617-2.018 7.466 7.466 0 0 1-.154-1A1.705 1.705 0 0 1 3.387 3.9c.531-.113 1.069-.191 1.6-.282A1.13 1.13 0 0 0 5.85 3c.169-.327.341-.652.508-.979a5.412 5.412 0 0 1 .4-.7A1.628 1.628 0 0 1 8.781.684a7.011 7.011 0 0 1 1.258.615 1.751 1.751 0 0 0 1.924.009A5.264 5.264 0 0 1 13.53.613a1.563 1.563 0 0 1 1.6.576 3.808 3.808 0 0 1 .488.778c.135.267.286.527.4.8a1.53 1.53 0 0 0 1.376.945 7.983 7.983 0 0 1 1.467.266A1.692 1.692 0 0 1 20.1 5.919q-.075.594-.178 1.184a1.788 1.788 0 0 0 .734 1.936 2.808 2.808 0 0 1 1.144 1.544c.016.059.022.121.032.181" style="fill:#253858"/>
        <path data-name="Path 10832" d="M3.045 16.092a9.04 9.04 0 0 1 .195-1.5 2.29 2.29 0 0 0-.691-2.03c-.288-.309-.642-.544-.923-.864-.565-.642-.356-1.076.159-1.561a10.115 10.115 0 0 0 .957-.963A2.554 2.554 0 0 0 3.2 6.888a4.005 4.005 0 0 1-.164-1.428.355.355 0 0 1 .221-.292 4.407 4.407 0 0 1 1.5-.4 2.491 2.491 0 0 0 1.775-.8 4.5 4.5 0 0 0 .6-1.056 5.284 5.284 0 0 1 .507-.954.506.506 0 0 1 .67-.225 9.331 9.331 0 0 1 1.451.639 2.625 2.625 0 0 0 2.827-.139 4.688 4.688 0 0 1 1.029-.507.521.521 0 0 1 .7.217 4.112 4.112 0 0 1 .456.744c.142.281.28.564.424.844a2.165 2.165 0 0 0 1.675 1.187 12.848 12.848 0 0 1 1.424.235c.694.2.776.3.7 1.1-.051.519-.25 1.01-.26 1.539a2.508 2.508 0 0 0 .715 1.79c.325.358.717.649 1.029 1.021a.81.81 0 0 1 .05 1.112 3.4 3.4 0 0 1-.714.714 2.611 2.611 0 0 0-1.008 2.732c.067.338.136.676.195 1.015a.855.855 0 0 1-.692 1.07 11.081 11.081 0 0 1-1.294.176 2.312 2.312 0 0 0-1.854 1.306 6.936 6.936 0 0 1-.831 1.456c-.3.359-.354.386-.8.246a6.874 6.874 0 0 1-1.079-.513 2.972 2.972 0 0 0-1.538-.47 2.629 2.629 0 0 0-.946.256c-.476.212-.908.513-1.4.685-.562.2-.687.156-1.023-.346-.309-.462-.5-.985-.769-1.468a2.147 2.147 0 0 0-1.655-1.1 10.824 10.824 0 0 1-1.378-.23c-.683-.2-.673-.222-.7-.949" style="fill:#d5e8ff"/>
        <path data-name="Path 10833" d="M5.667 11.966V8.99c0-.5.21-.71.716-.71h2.441a.654.654 0 0 1 .666.309c.051.1.11.045.17.006a8.005 8.005 0 0 0 1.548-1.3 8.163 8.163 0 0 0 1.241-1.738 1.322 1.322 0 0 1 1.993-.418 1.458 1.458 0 0 1 .6 1.536 4.078 4.078 0 0 1-.438 1.446c-.069.123-.032.154.1.157.283.007.565 0 .849.02a1.723 1.723 0 0 1 1.484 2.11c-.277 1.22-.542 2.444-.828 3.662a1.651 1.651 0 0 1-1.609 1.265 20.317 20.317 0 0 1-4.935-.6.277.277 0 0 0-.364.145 1.634 1.634 0 0 1-1.43.774c-.514.012-1.028 0-1.542 0a.588.588 0 0 1-.659-.671v-3.022" style="fill:#0065ff"/>
        <path data-name="Path 10834" d="M9.576 11.76c0-.538.005-1.076 0-1.614a.3.3 0 0 1 .171-.309 9.366 9.366 0 0 0 3.6-3.665c.07-.128.134-.254.311-.192.161.057.3.155.287.345a2.978 2.978 0 0 1-.373 1.41 1.42 1.42 0 0 1-.5.5.619.619 0 0 0-.32.739c.078.286.271.415.631.415h1.933a.62.62 0 0 1 .659.818q-.384 1.753-.779 3.505a.6.6 0 0 1-.66.515 20.194 20.194 0 0 1-4.8-.6.173.173 0 0 1-.156-.2c.007-.554 0-1.107 0-1.661" style="fill:#fefefe"/>
        <path data-name="Path 10835" d="M6.758 11.959c0-.784.006-1.567-.005-2.351 0-.188.057-.23.233-.225.429.012.859.009 1.288 0 .14 0 .2.023.2.185-.006 1.445 0 2.889-.005 4.334a.593.593 0 0 1-.658.652c-.284 0-.568-.009-.851 0-.16.007-.208-.039-.206-.2.009-.8 0-1.6 0-2.4" style="fill:#fefefe"/>
    </g>
</svg>
