<svg data-name="Group 19110" xmlns="http://www.w3.org/2000/svg" width="18" height="18" viewBox="0 0 18 18">
    <defs>
        <clipPath id="ptrngj5c6a">
            <path data-name="Rectangle 5000" style="fill:none" d="M0 0h18v18H0z"/>
        </clipPath>
    </defs>
    <g data-name="Group 4205" style="clip-path:url(#ptrngj5c6a)">
        <path data-name="Path 10390" d="M9.993 1.337a1.168 1.168 0 0 1 .559.309.994.994 0 0 1 .249.675c0 .46.007.921 0 1.381a.921.921 0 0 1-.541.867c-.068.035-.1.073-.085.143a.127.127 0 0 1 0 .017 2.642 2.642 0 0 0 .02.764 2.386 2.386 0 0 0 .428.61c.354.474.706.948 1.064 1.416a1.783 1.783 0 0 1 .372 1.122v2.588c.055.026.082-.017.114-.035.427-.241.845-.5 1.281-.724a2.5 2.5 0 0 1 3.606 1.83c.013.083.022.166.032.248a1.821 1.821 0 0 1 .011.313 2.28 2.28 0 0 1-1.123 1.968c-1.122.7-2.282 1.333-3.428 1.994a17.17 17.17 0 0 0-.323.192 2.473 2.473 0 0 1-1.169.4h-.628a2.231 2.231 0 0 1-1.2-.485 2.363 2.363 0 0 1-.5-.514.392.392 0 0 0-.365-.184c-1.589.005-3.178.01-4.767 0a1.589 1.589 0 0 1-1.486-.952 1.228 1.228 0 0 1-.108-.6V8.513A1.481 1.481 0 0 1 2.343 7.5c.468-.616.928-1.238 1.4-1.855a.535.535 0 0 0 .122-.361c-.007-.168 0-.336 0-.5a.2.2 0 0 0-.11-.19.982.982 0 0 1-.52-.948c.007-.418 0-.837 0-1.256A.947.947 0 0 1 4 1.337z" transform="translate(-.56 -.374)" style="fill:#052e5e"/>
        <path data-name="Path 10391" d="M22.989 17.249h-.027v-.347h.027z" transform="translate(-6.429 -4.733)" style="fill:#d0d0d0"/>
        <path data-name="Path 10392" d="M7.287 12.063h4.238c.119 0 .157.024.156.152q-.01 1.13 0 2.259a.227.227 0 0 1-.131.233q-.937.536-1.867 1.086a2.226 2.226 0 0 0-.777.782.2.2 0 0 1-.2.109q-2.84-.005-5.682 0c-.105 0-.14-.019-.14-.133q.006-2.174 0-4.347c0-.127.043-.139.15-.139h4.253" transform="translate(-.807 -3.377)" style="fill:#fefefe"/>
        <path data-name="Path 10393" d="M7.264 9.726H3.042c-.138 0-.154-.037-.114-.156a1.331 1.331 0 0 1 .2-.371c.5-.668 1-1.339 1.508-2.005a.649.649 0 0 0 .146-.433c-.008-.23 0-.46 0-.69 0-.081.01-.118.107-.118q2.4.005 4.8 0c.1 0 .122.035.117.126-.009.161.053.372-.027.471s-.3.031-.463.032H7.041c-.22 0-.354.1-.37.28-.019.2.118.344.349.347h2.825a.2.2 0 0 1 .181.088q.716.962 1.438 1.92a1.178 1.178 0 0 1 .186.359c.034.107.021.15-.114.15-1.423-.006-2.846 0-4.269 0" transform="translate(-.814 -1.668)" style="fill:#fefefe"/>
        <path data-name="Path 10394" d="M13.542 21.049a1.908 1.908 0 0 1-1.887-1.359 1.854 1.854 0 0 1 .8-2.112c.55-.34 1.119-.649 1.675-.979.1-.06.12 0 .156.066l1.338 2.318c.141.244.28.489.424.731.04.067.056.1-.032.153-.545.307-1.086.624-1.629.935a1.815 1.815 0 0 1-.849.248" transform="translate(-3.242 -4.641)" style="fill:#cbe9fe"/>
        <path data-name="Path 10395" d="M7.757 4.281H5.06c-.33 0-.427-.1-.428-.432V2.61c0-.292.107-.4.4-.4H10.5c.29 0 .407.117.408.409v1.254c0 .292-.118.408-.408.409H7.757" transform="translate(-1.297 -.619)" style="fill:#fefefe"/>
        <path data-name="Path 10396" d="M20.4 16.387a1.871 1.871 0 0 1-.94 1.63c-.482.291-.976.563-1.462.849-.088.052-.118.027-.163-.051q-.876-1.527-1.762-3.049c-.055-.1-.032-.125.052-.172.472-.267.94-.544 1.412-.811a1.874 1.874 0 0 1 2.84 1.317c.018.1.019.2.027.287" transform="translate(-4.493 -4.062)" style="fill:#cbe9fe"/>
        <path data-name="Path 10397" d="M5.733 19.341h2.7c.127 0 .158.024.129.154a2.068 2.068 0 0 0 .011.948c.03.122.018.164-.127.163-.8-.009-1.591 0-2.386 0-.706 0-1.413-.014-2.119 0a1 1 0 0 1-1.058-1.189c.01-.114.085-.071.135-.071h2.355z" transform="translate(-.805 -5.414)" style="fill:#fefefe"/>
        <path data-name="Path 10398" d="M8.069 15.639c0-.131-.006-.262 0-.392.006-.094-.019-.127-.12-.125-.261.008-.523.006-.785 0a.314.314 0 0 1-.348-.286.31.31 0 0 1 .341-.341c.261 0 .523-.006.785 0 .107 0 .13-.032.127-.132-.006-.251 0-.5 0-.753 0-.231.125-.373.313-.372s.31.146.313.376c0 .256.005.513 0 .769 0 .091.027.113.114.111.251-.005.5 0 .753 0s.389.125.386.317-.149.31-.392.311-.482.006-.722 0c-.107 0-.144.019-.14.135.01.256.009.513 0 .768s-.2.407-.411.333a.286.286 0 0 1-.211-.279c-.005-.146 0-.293 0-.439" transform="translate(-1.909 -3.708)" style="fill:#052e5e"/>
        <path data-name="Path 10399" d="M6.38 7.153a.315.315 0 0 1 .3-.319.313.313 0 1 1 .013.625.315.315 0 0 1-.311-.306" transform="translate(-1.786 -1.913)" style="fill:#052e5e"/>
    </g>
</svg>
