<svg xmlns="http://www.w3.org/2000/svg" width="18" height="18" viewBox="0 0 18 18">
    <defs>
        <clipPath id="mxiebp1oqa">
            <path data-name="Rectangle 5005" transform="translate(.5 .5)" style="fill:none" d="M0 0h18v18H0z"/>
        </clipPath>
    </defs>
    <g data-name="Group 19108">
        <g data-name="Group 4217" style="clip-path:url(#mxiebp1oqa)" transform="translate(-.5 -.5)">
            <path data-name="Path 10416" d="M4.91 1.253c.4.174.554.4.51.749a.629.629 0 0 1-.566.549 4.747 4.747 0 0 1-.616 0 .575.575 0 0 1-.471-.306c-.04-.071-.076-.078-.15-.056a.887.887 0 0 0-.638.8c-.01.754 0 1.508-.006 2.262a.114.114 0 0 0 .071.122.734.734 0 0 1 .422.718q-.005.917 0 1.835a2.181 2.181 0 0 0 1.652 2.16 2.154 2.154 0 0 0 2.665-2.047c.011-.654.005-1.308 0-1.961a.73.73 0 0 1 .417-.7.126.126 0 0 0 .08-.132V3.063a.9.9 0 0 0-.624-.863c-.082-.027-.127-.027-.178.057a.607.607 0 0 1-.538.305c-.158 0-.316.006-.474 0a.65.65 0 0 1-.634-.534.659.659 0 0 1 .436-.737c.024-.009.053 0 .066-.034h.727a.74.74 0 0 1 .465.392c.022.05.063.045.1.054A1.38 1.38 0 0 1 8.753 3.1c.006.7 0 1.392 0 2.087a.2.2 0 0 0 .12.206.671.671 0 0 1 .373.616c0 .733.032 1.467-.009 2.2a3.491 3.491 0 0 1-1.493 2.712.279.279 0 0 0-.13.258c0 .411.014.823-.009 1.233a1.937 1.937 0 0 1-1.593 1.828c-.1.02-.126.051-.115.148a2.881 2.881 0 0 0 5.746-.274c.009-1.491 0-2.983 0-4.474a1.662 1.662 0 0 1 1.217-1.635 1.963 1.963 0 0 1 .611-.062c.106 0 .151-.019.175-.138a1.758 1.758 0 0 1 2.532-1.182c.116.062.2.137.163.285-.047.173-.192.229-.372.14a1.253 1.253 0 0 0-1.345.082 1.271 1.271 0 0 0-.41 1.627 1.289 1.289 0 0 0 1.542.636 1.274 1.274 0 0 0 .863-1.437.782.782 0 0 1-.014-.141.209.209 0 0 1 .195-.215.22.22 0 0 1 .261.126c.034.064.006.146.064.2v.506c-.04.122-.076.246-.121.366a1.754 1.754 0 0 1-3.356-.26c-.019-.1-.055-.125-.153-.127a1.234 1.234 0 0 0-1.316.84 1.419 1.419 0 0 0-.055.453c0 1.47.006 2.941 0 4.411a3.339 3.339 0 0 1-2.39 3.185c-.2.061-.411.1-.617.146H8.39a2.729 2.729 0 0 1-1.2-.348 3.351 3.351 0 0 1-1.785-2.519 1.183 1.183 0 0 1-.022-.14.162.162 0 0 0-.153-.168 1.906 1.906 0 0 1-.9-.445 1.928 1.928 0 0 1-.667-1.185 8.98 8.98 0 0 1-.03-1.356.4.4 0 0 0-.176-.356A3.594 3.594 0 0 1 2.047 8.6c-.025-.139-.012-.282-.047-.42v-.127a2.735 2.735 0 0 0 .017-.461c.026-.143.1-.209.227-.206a.276.276 0 0 1 .268.243c.015.178.016.357.036.536A3.156 3.156 0 0 0 3.969 10.6a.46.46 0 0 1 .229.434c-.01.416-.007.833 0 1.249a1.463 1.463 0 0 0 1.26 1.459A1.447 1.447 0 0 0 7.08 12.5a12.922 12.922 0 0 0 .027-1.484.483.483 0 0 1 .235-.446 3.056 3.056 0 0 0 1.373-2.244 1.391 1.391 0 0 0 .01-.189V6.176a.72.72 0 0 0-.012-.189.183.183 0 0 0-.192-.154.2.2 0 0 0-.2.15.686.686 0 0 0-.014.188v1.771a2.656 2.656 0 0 1-.642 1.774 2.56 2.56 0 0 1-2.007.941 2.588 2.588 0 0 1-2.283-1.242 2.552 2.552 0 0 1-.412-1.23c-.05-.664-.011-1.327-.027-1.99v-.174a.187.187 0 0 0-.2-.188.2.2 0 0 0-.21.175 1.591 1.591 0 0 0-.009.269 1.743 1.743 0 0 1-.006.221.277.277 0 0 1-.242.254c-.127.017-.21-.039-.271-.184V5.9a.646.646 0 0 1 .366-.55c.1-.055.1-.153.1-.248V3.079a1.394 1.394 0 0 1 1.058-1.4.288.288 0 0 0 .209-.127.577.577 0 0 1 .454-.3z" transform="translate(-.56 -.351)" style="fill:#052e5e"/>
            <path data-name="Path 10417" d="M2 8.328a.27.27 0 0 0 .335.127c.142-.055.145-.177.141-.3v-.316c0-.188.094-.292.256-.294s.259.1.26.287v1.771a2.936 2.936 0 0 0 .175 1.068 2.627 2.627 0 0 0 5.055-.477 2.864 2.864 0 0 0 .039-.5V7.828a.252.252 0 0 1 .357-.259.208.208 0 0 1 .151.2 23.324 23.324 0 0 1-.032 2.417 2.955 2.955 0 0 1-1.359 2.178.471.471 0 0 0-.241.451c.011.458.017.917-.009 1.374a1.477 1.477 0 0 1-1.5 1.384 1.494 1.494 0 0 1-1.467-1.446c-.013-.464-.006-.927 0-1.391A.308.308 0 0 0 4 12.44a3.3 3.3 0 0 1-1.523-2.882v-.127a.216.216 0 0 0-.184-.239.209.209 0 0 0-.266.138c0 .022-.01.025-.026.01z" transform="translate(-.56 -2.111)" style="fill:#cbe9fe"/>
            <path data-name="Path 10418" d="m2 10.036.026-.01a1.372 1.372 0 0 1-.026.485z" transform="translate(-.56 -2.807)" style="fill:#2b2b2b"/>
            <path data-name="Path 10419" d="M20.936 10.618a.627.627 0 1 1-.626-.62.629.629 0 0 1 .626.62" transform="translate(-5.511 -2.799)" style="fill:#052e5e"/>
            <path data-name="Path 10420" d="M5.379 2.267c-.078 0-.158.006-.235 0a.16.16 0 0 1-.159-.177.162.162 0 0 1 .165-.174c.157-.008.315-.006.471 0a.162.162 0 0 1 .167.172.163.163 0 0 1-.173.181H5.38" transform="translate(-1.396 -.534)" style="fill:#cbe9fe"/>
            <path data-name="Path 10421" d="M8.379 1.914a2.333 2.333 0 0 1 .235 0 .164.164 0 0 1 .161.178.159.159 0 0 1-.164.174 7.16 7.16 0 0 1-.486 0 .154.154 0 0 1-.153-.166.164.164 0 0 1 .156-.182 2.076 2.076 0 0 1 .251 0" transform="translate(-2.232 -.535)" style="fill:#cbe9fe"/>
            <path data-name="Path 10422" d="M7.66 15.711a3.44 3.44 0 0 1-.03.653.966.966 0 0 1-1.009.733.95.95 0 0 1-.9-.878c-.022-.362-.014-.726-.009-1.089 0-.193.127-.28.321-.243a3.232 3.232 0 0 0 1.285-.006c.225-.047.337.051.34.287v.544" transform="translate(-1.598 -4.163)" style="fill:#052e5e"/>
            <path data-name="Path 10423" d="M20.5 10.655c.087.012.148.053.152.148a.142.142 0 0 1-.155.16.14.14 0 0 1-.146-.153.15.15 0 0 1 .149-.155" transform="translate(-5.697 -2.983)" style="fill:#f7f7f7"/>
            <path data-name="Path 10424" d="M6.871 15.632c.148-.009.28-.012.41-.029.071-.009.091.008.09.078 0 .232.005.464-.005.7a.491.491 0 0 1-.481.455.479.479 0 0 1-.5-.411c-.022-.246-.01-.495-.016-.742 0-.071.038-.072.092-.068.142.01.284.016.41.022" transform="translate(-1.783 -4.368)" style="fill:#fefefe"/>
        </g>
    </g>
</svg>
