<svg xmlns="http://www.w3.org/2000/svg" width="18" height="18" viewBox="0 0 18 18">
    <defs>
        <clipPath id="h809842o5a">
            <path data-name="Rectangle 5023" transform="translate(.5 .5)" style="fill:none" d="M0 0h18v18H0z"/>
        </clipPath>
    </defs>
    <g data-name="Group 19109">
        <g data-name="Group 4254" style="clip-path:url(#h809842o5a)" transform="translate(-.5 -.5)">
            <path data-name="Path 10446" d="M7.652 1a1.467 1.467 0 0 1 .677.364c.043.048.074.012.111-.01a1.067 1.067 0 0 1 1.562.4c.042.072.073.1.161.075a.926.926 0 0 1 1.068.5c.04.078.071.109.166.094a.92.92 0 0 1 1.082.731c.022.092.055.112.148.111a.843.843 0 0 1 .835 1.1 1.193 1.193 0 0 1-.6.762c-.094.05-.12.082-.069.189a2.375 2.375 0 0 1 .229 1.014.221.221 0 0 0 .105.183c.808.689 1.613 1.381 2.423 2.067a1.2 1.2 0 0 1 .459.986c-.006.269 0 .539 0 .809 0 .179-.092.282-.24.282s-.244-.105-.246-.279V9.52a.643.643 0 0 0-.232-.52c-.768-.66-1.539-1.316-2.33-1.992-.045.217-.089.418-.128.618-.012.056.039.086.068.122.255.306.508.615.768.916a.7.7 0 0 1 .171.626c-.109.6-.2 1.2-.3 1.8a.568.568 0 0 1-.588.512q-.146.005-.292 0a.594.594 0 0 1-.518-.3q-.221-.376-.449-.747a.4.4 0 1 0-.722.364c.22.52.437 1.04.666 1.556a2.469 2.469 0 0 0 1.31 1.3 1.245 1.245 0 0 1 .552.446c.251.362.523.711.783 1.068a.246.246 0 1 1-.39.291 1.049 1.049 0 0 1-.058-.078c-.263-.355-.526-.709-.786-1.066a.514.514 0 0 0-.222-.177 3.111 3.111 0 0 1-1.717-1.768c-.189-.468-.4-.928-.593-1.394a.89.89 0 0 1 1.588-.8c.148.243.292.489.44.733.1.172.273.078.412.088s.107-.116.12-.193c.1-.573.186-1.148.282-1.721a.2.2 0 0 0-.035-.18l-.621-.739-.2.99c-.009.042-.017.085-.027.127-.042.17-.151.247-.3.213A.242.242 0 0 1 12 9.292c.109-.543.219-1.086.326-1.629.062-.311.13-.622.178-.935A2.226 2.226 0 0 0 10.647 4.2c-.446-.069-.895-.134-1.337-.225a1.425 1.425 0 0 1-1.12-1.567.761.761 0 0 0-.518-.89.708.708 0 0 0-.774.228.7.7 0 0 0-.1.814 2.564 2.564 0 0 1 .247 1.521c-.045.315-.078.631-.107.947a9.489 9.489 0 0 0 0 1.631.338.338 0 0 1-.03.2.23.23 0 0 1-.26.119.225.225 0 0 1-.19-.212 9.3 9.3 0 0 1-.037-1.05V5.5a57 57 0 0 0-.451.544.145.145 0 0 0-.013.125c.1.589.2 1.179.285 1.769.02.132.071.166.206.175a.376.376 0 0 0 .415-.239 7.138 7.138 0 0 1 .378-.638A.861.861 0 0 1 8.37 6.9a.872.872 0 0 1 .445 1.14c-.145.358-.3.712-.456 1.067a.249.249 0 0 1-.333.168c-.136-.053-.182-.2-.111-.368.143-.336.289-.671.431-1.007a.4.4 0 0 0-.184-.559.381.381 0 0 0-.532.183c-.154.252-.308.5-.456.761a.582.582 0 0 1-.544.312h-.324a.537.537 0 0 1-.528-.457c-.109-.647-.214-1.3-.318-1.944a.6.6 0 0 1 .153-.496c.253-.3.5-.606.759-.9a.472.472 0 0 0 .128-.289c.017-.215.053-.428.083-.65-.068.008-.1.058-.144.092-.712.6-1.418 1.211-2.136 1.805a1.3 1.3 0 0 0-.5 1.1c.014.792 0 1.585.005 2.377a1.062 1.062 0 0 1-.124.511c-.275.523-.546 1.049-.819 1.573-.141.272-.329.284-.508.035v-.13a3.257 3.257 0 0 1 .323-.7c.181-.325.328-.667.518-.987a.735.735 0 0 0 .086-.389V6.691a1.6 1.6 0 0 1 .6-1.256c.823-.7 1.651-1.4 2.477-2.1a.232.232 0 0 0 .069-.31 2.843 2.843 0 0 1-.21-.558 1.288 1.288 0 0 1 .729-1.4c.085-.038.179-.03.263-.067z" transform="translate(-.657 -.28)" style="fill:#052e5e"/>
            <path data-name="Path 10447" d="M11.476 22.75c-.117-.032-.234-.062-.351-.1a2.362 2.362 0 0 1-1.7-2.4c.01-.156.012-.312.028-.468.019-.176.123-.265.274-.248s.218.122.21.292a3.647 3.647 0 0 0 .009.933 1.878 1.878 0 0 0 3.654.107c.082-.306.139-.618.206-.928a.352.352 0 0 1 .123-.253.231.231 0 0 1 .245-.014.211.211 0 0 1 .131.222 4.123 4.123 0 0 1-.687 1.986 2.269 2.269 0 0 1-1.528.84c-.012 0-.022.018-.033.027z" transform="translate(-2.638 -5.47)" style="fill:#052e5e"/>
            <path data-name="Path 10448" d="M22.088 18.329c-.183.248-.367.235-.509-.037-.27-.518-.538-1.039-.811-1.557a1.081 1.081 0 0 1-.131-.541c.005-.243 0-.485 0-.727 0-.185.1-.291.254-.286s.228.1.232.289a.244.244 0 0 1 0 .032 2.428 2.428 0 0 0 .4 1.649c.21.334.374.7.558 1.048z" transform="translate(-5.778 -4.251)" style="fill:#052e5e"/>
            <path data-name="Path 10449" d="M10.072 7.377a1.975 1.975 0 0 1 1.9 2.5c-.028.1-.055.2-.163.245a.233.233 0 0 1-.258-.038.236.236 0 0 1-.071-.263 1.486 1.486 0 0 0-1.645-1.937c-.2.033-.325-.035-.349-.189s.064-.253.266-.293a1.656 1.656 0 0 1 .321-.025" transform="translate(-2.655 -2.066)" style="fill:#052e5e"/>
            <path data-name="Path 10450" d="M6.206 16.107a.244.244 0 0 1-.2-.127.234.234 0 0 1 .014-.259c.1-.145.21-.286.315-.429.2-.276.411-.552.613-.831a.562.562 0 0 1 .246-.2 2.787 2.787 0 0 0 1.272-.98.237.237 0 0 1 .352-.064.249.249 0 0 1 .032.359 2.968 2.968 0 0 1-1.269 1.04.84.84 0 0 0-.364.3c-.251.35-.51.693-.765 1.04a.312.312 0 0 1-.245.152" transform="translate(-1.673 -3.686)" style="fill:#052e5e"/>
            <path data-name="Path 10451" d="M11.781 13.568a2.028 2.028 0 0 1 .631-1.36c.144-.143.284-.161.395-.053s.1.248-.044.393a1.6 1.6 0 0 0-.33 1.872c.076.172.041.306-.1.369s-.254 0-.338-.157a2.254 2.254 0 0 1-.216-1.065" transform="translate(-3.299 -3.384)" style="fill:#052e5e"/>
            <path data-name="Path 10452" d="M9.595 16.7a9.349 9.349 0 0 0-.068-1.354c-.022-.192.053-.307.2-.326s.256.078.281.264a10.038 10.038 0 0 1 .03 2.176.241.241 0 0 1-.27.253c-.143-.014-.222-.117-.215-.287.012-.242.027-.484.042-.726" transform="translate(-2.666 -4.204)" style="fill:#052e5e"/>
            <path data-name="Path 10453" d="M14.448 11.424a1.446 1.446 0 0 1 .369.032.246.246 0 0 1 .212.262.238.238 0 0 1-.271.217 2.375 2.375 0 0 0-.659.006.221.221 0 0 1-.269-.194.235.235 0 0 1 .2-.283 1.589 1.589 0 0 1 .417-.041" transform="translate(-3.871 -3.198)" style="fill:#052e5e"/>
            <path data-name="Path 10454" d="M12.17 2.826a1.027 1.027 0 0 1-.42.827c-.07.058-.117.028-.171-.006a.932.932 0 0 1-.462-.913 1.5 1.5 0 0 0-.032-.575c-.025-.079.014-.107.063-.143a.582.582 0 0 1 .816.138 1.085 1.085 0 0 1 .2.672" transform="translate(-3.102 -.534)" style="fill:#cbe9fe"/>
            <path data-name="Path 10455" d="M12.74 4.075a1.519 1.519 0 0 0 .376-1.158c-.006-.087.032-.112.107-.122a.452.452 0 0 1 .506.307.892.892 0 0 1-.06.7.506.506 0 0 1-.62.319l-.309-.049" transform="translate(-3.567 -.781)" style="fill:#cbe9fe"/>
            <path data-name="Path 10456" d="M15.406 4.143a.922.922 0 0 1-.217.592c-.053.065-.1.084-.174.034a1.837 1.837 0 0 0-.5-.217c-.1-.027-.091-.057-.04-.127a1.268 1.268 0 0 0 .251-.669.116.116 0 0 1 .1-.119.465.465 0 0 1 .577.507" transform="translate(-4.043 -1.013)" style="fill:#cbe9fe"/>
            <path data-name="Path 10457" d="M16.439 4.813a.361.361 0 0 1 .374.419.729.729 0 0 1-.223.419c-.211.2-.277.2-.468-.009-.061-.067-.163-.127-.174-.2s.1-.132.14-.206a1.314 1.314 0 0 0 .135-.272.2.2 0 0 1 .215-.151" transform="translate(-4.465 -1.348)" style="fill:#cbe9fe"/>
        </g>
    </g>
</svg>
